Coordinates
version=1
nRows=24
nColumns=24
inDegrees=yes

Units are S.I. units (second, meters, Newtons, ...)
Angles are in degrees.

endheader
time	pelvis_tilt	pelvis_list	pelvis_rotation	pelvis_tx	pelvis_ty	pelvis_tz	hip_flexion_r	hip_adduction_r	hip_rotation_r	knee_angle_r	ankle_angle_r	subtalar_angle_r	mtp_angle_r	hip_flexion_l	hip_adduction_l	hip_rotation_l	knee_angle_l	ankle_angle_l	subtalar_angle_l	mtp_angle_l	lumbar_extension	lumbar_bending	lumbar_rotation
      1.32000000	     23.26035039	     -5.95580907	      4.79012931	     -0.20816431	      0.90755835	      0.00326809	     -4.53068953	      7.56285179	      3.27166053	    -14.79979733	      6.18619567	    -25.92699175	     23.06224369	    -34.02151513	     -3.66969507	     24.19132649	      0.47285915	      3.07008784	    -38.07802975	     16.62965615	    -32.69688869	      6.94728778	      0.67041816
      1.32500000	     23.16597054	     -5.98773231	      4.39862561	     -0.20193022	      0.90647560	      0.00391791	     -4.65287269	      7.64240154	      4.70702907	    -12.55331020	      5.09466787	    -27.43701829	     23.06426018	    -34.46850870	     -3.48707328	     23.48902643	      0.56146654	      3.48778726	    -37.64961801	     16.46987279	    -32.59399051	      6.78285919	      0.97030589
      1.33000000	     23.02691610	     -5.99808191	      3.96471900	     -0.19561800	      0.90528670	      0.00463544	     -4.74862996	      7.66092948	      6.17847075	    -10.31963217	      3.95884890	    -28.85266414	     23.45924344	    -34.82084411	     -3.23477891	     22.55894499	      0.50809370	      4.31005582	    -36.62088167	     16.37702053	    -32.43684250	      6.57689399	      1.25548434
      1.33500000	     22.89810698	     -5.96848533	      3.55354600	     -0.18927683	      0.90404667	      0.00528010	     -4.90962383	      7.59751650	      7.63808712	     -7.99953386	      2.48513559	    -30.61582106	     27.01835939	    -35.18523974	     -2.95328666	     21.71455931	      0.45393102	      5.20162224	    -35.41705950	     14.99076227	    -32.28316057	      6.35213540	      1.52867463
      1.34000000	     22.69678132	     -5.91069600	      3.09794833	     -0.18292971	      0.90265523	      0.00598633	     -4.96124174	      7.47151959	      9.11621542	     -5.83433096	      1.42026238	    -31.73695897	     26.86126684	    -35.46675460	     -2.61629967	     20.88623159	      0.39893208	      5.88872356	    -34.50374611	     15.04598186	    -32.04971782	      6.08210375	      1.82256304
      1.34500000	     22.50950476	     -5.83575008	      2.66474116	     -0.17655679	      0.90121939	      0.00663090	     -5.03888985	      7.29744872	     10.52431828	     -3.69859352	      0.34826541	    -32.72885551	     27.01575253	    -35.75534317	     -2.26780430	     20.07182155	      0.33237372	      6.58531141	    -33.55366633	     15.05966047	    -31.82477872	      5.81373497	      2.08897167
      1.35000000	     22.29764275	     -5.70956467	      2.24138742	     -0.17018134	      0.89972272	      0.00724944	     -5.07621125	      7.04472232	     11.85336014	     -1.64616485	     -0.73830746	    -33.67857894	     27.44978233	    -35.97044795	     -1.85903169	     19.24822491	      0.16766124	      7.30953925	    -32.61928745	     14.99434373	    -31.56678643	      5.50388494	      2.29047816
      1.35500000	     22.06813013	     -5.58846416	      1.80662357	     -0.16379892	      0.89815233	      0.00786747	     -5.05823221	      6.78052913	     13.11118685	      0.26752744	     -1.69791698	    -34.32996288	     28.00914371	    -36.18842998	     -1.45671519	     18.49870348	      0.05889755	      7.97437799	    -31.72480401	     14.89536641	    -31.28788109	      5.20287527	      2.55298985
      1.36000000	     21.83467096	     -5.43895853	      1.39806733	     -0.15739006	      0.89655855	      0.00844177	     -5.01316918	      6.48046345	     14.23749953	      2.06316093	     -2.57497694	    -34.81237202	     28.64408248	    -36.37510104	     -1.03190161	     17.74823124	     -0.09823691	      8.61628312	    -30.87277607	     14.75628814	    -30.99433942	      4.89081106	      2.75071587
      1.36500000	     21.64479672	     -5.28517183	      1.03214309	     -0.15100794	      0.89499780	      0.00893538	     -4.99222106	      6.17490087	     15.24795494	      3.73874867	     -3.37947059	    -35.13099053	     29.44467390	    -36.60470619	     -0.62730460	     17.06363693	     -0.24407502	      9.21489061	    -29.99676038	     14.52188174	    -30.74703623	      4.60266484	      2.90102405
      1.37000000	     21.37909597	     -5.15722337	      0.61878517	     -0.14464223	      0.89335075	      0.00949344	     -4.78802647	      5.91672523	     16.13889826	      5.10103824	     -3.74435233	    -34.77988820	     29.70011454	    -36.77020068	     -0.21710397	     16.44002228	     -0.33546695	      9.51235347	    -29.72513741	     14.47447246	    -30.41935150	      4.32656205	      3.12204683
      1.37500000	     21.15954135	     -5.03453171	      0.28846920	     -0.13824181	      0.89175602	      0.00996483	     -4.65612274	      5.67722392	     16.91408477	      6.42675561	     -4.37204213	    -34.73877423	     30.13261412	    -36.91786002	      0.14482782	     15.73152472	     -0.58410299	     10.31181612	    -28.65689026	     14.47678291	    -30.13129298	      4.09379055	      3.30856871
      1.38000000	     20.96950798	     -4.90520321	     -0.02009488	     -0.13184250	      0.89023114	      0.01041163	     -4.52552065	      5.45120152	     17.58509169	      7.58046132	     -4.82940453	    -34.54763289	     30.72126819	    -37.10520624	      0.50128786	     15.06427281	     -0.79434661	     10.83206820	    -27.82324177	     14.31617657	    -29.87084939	      3.86680906	      3.44607962
      1.38500000	     20.73650728	     -4.80279279	     -0.34845159	     -0.12550344	      0.88867163	      0.01090546	     -4.27358070	      5.28668026	     18.21424865	      8.46364879	     -5.05793899	    -34.10570258	     30.93641210	    -37.26193215	      0.84278739	     14.51730344	     -0.94759428	     11.11076380	    -27.56451285	     14.28583919	    -29.57222840	      3.66290465	      3.61339764
      1.39000000	     20.55311984	     -4.73421522	     -0.59346084	     -0.11911196	      0.88722144	      0.01129033	     -4.08047245	      5.18545079	     18.66490065	      9.22968066	     -5.31166992	    -33.65185295	     31.31961265	    -37.40959871	      1.11067571	     13.86189765	     -1.24964339	     11.76772810	    -26.63426877	     14.30876766	    -29.31752556	      3.53315917	      3.77278013
      1.39500000	     20.40814968	     -4.65087837	     -0.80446343	     -0.11279578	      0.88586114	      0.01163042	     -3.90427957	      5.09172508	     19.06278632	      9.83171482	     -5.56656220	    -33.23299494	     31.40626976	    -37.64558818	      1.37015055	     13.48248332	     -1.40323304	     11.87907921	    -26.55716658	     14.30706217	    -29.11085623	      3.40406436	      3.86516097
      1.40000000	     20.21926915	     -4.64646276	     -1.03011597	     -0.10637406	      0.88449061	      0.01205625	     -3.63077822	      5.12522664	     19.42771704	     10.17022883	     -5.51724941	    -32.67179777	     31.79980786	    -37.75774137	      1.56228377	     12.71865407	     -1.77056631	     12.57839383	    -25.41450036	     14.42446390	    -28.84791695	      3.35054699	      4.02299516
      1.40500000	     20.07320601	     -4.63339628	     -1.22454748	     -0.10002456	      0.88322050	      0.01245388	     -3.38590865	      5.17320670	     19.75090485	     10.35559123	     -5.50492364	    -32.22049372	     32.05974908	    -37.94522434	      1.74293756	     12.17064197	     -2.03617380	     12.88025774	    -24.93876948	     14.45715672	    -28.63979309	      3.29910545	      4.15302674
      1.41000000	     19.94998669	     -4.65516525	     -1.36176859	     -0.09368055	      0.88205988	      0.01279949	     -3.14731949	      5.28483892	     20.01267885	     10.36552273	     -5.46463197	    -31.73430589	     32.32867292	    -38.12401977	      1.85570078	     11.64089214	     -2.37128206	     13.22757895	    -24.30565899	     14.54824516	    -28.45698920	      3.30787896	      4.23310310
      1.41500000	     19.84644356	     -4.67840526	     -1.47906553	     -0.08733932	      0.88098063	      0.01313169	     -2.90780925	      5.42552618	     20.21685534	     10.20049625	     -5.39064983	    -31.30434984	     32.56212478	    -38.31916023	      1.95319209	     11.12871410	     -2.70435951	     13.51837244	    -23.73941138	     14.66423224	    -28.29772888	      3.32675838	      4.30343571
      1.42000000	     19.77908784	     -4.73011351	     -1.54261133	     -0.08097043	      0.88000216	      0.01340314	     -2.70513497	      5.61565278	     20.34333184	      9.90284737	     -5.28998688	    -30.83719511	     32.81069052	    -38.53910636	      1.99006327	     10.63032918	     -3.06711892	     13.83470394	    -23.07734213	     14.84236402	    -28.17429383	      3.39790307	      4.35997022
      1.42500000	     19.71844849	     -4.80150934	     -1.58914359	     -0.07457663	      0.87909086	      0.01366175	     -2.50083690	      5.84260980	     20.47194712	      9.46755826	     -5.17801548	    -30.43083922	     33.02595318	    -38.76206233	      1.99557116	     10.15563924	     -3.43474873	     14.07719068	    -22.48702507	     15.04364659	    -28.05675018	      3.49728136	      4.40743936
      1.43000000	     19.67548538	     -4.88422194	     -1.59473930	     -0.06814676	      0.87827906	      0.01391890	     -2.31004403	      6.10332453	     20.53197665	      8.90319270	     -5.05218217	    -30.02075306	     33.24111840	    -38.98699758	      1.95720211	      9.68968574	     -3.83632161	     14.32416943	    -21.83843163	     15.30851259	    -27.95517769	      3.61848102	      4.40501324
      1.43500000	     19.66517956	     -4.97200236	     -1.52042039	     -0.06167427	      0.87759210	      0.01404781	     -2.16463522	      6.37975334	     20.47225813	      8.25452869	     -4.92481389	    -29.59299775	     33.46961062	    -39.20448302	      1.86712048	      9.24938728	     -4.32001724	     14.51841205	    -21.12051594	     15.67673268	    -27.88289497	      3.78254863	      4.34595876
